<svg xmlns="http://www.w3.org/2000/svg" fill="none" viewBox="0 0 383 384"><path fill="url(#a)" d="M376.44 142.47c27.34 102.05-33.22 206.95-135.27 234.3C139.1 404.1 34.22 343.54 6.87 241.48-20.47 139.44 40.1 34.54 142.14 7.2 244.2-20.14 349.1 40.43 376.44 142.48Zm-242.1 64.87a59.34 59.34 0 1 0 114.63-30.72 59.34 59.34 0 0 0-114.64 30.72Z"/><circle cx="159.24" cy="71.03" r="46.18" fill="url(#b)" transform="rotate(-15 159.24 71.03)"/><circle cx="70.7" cy="159.57" r="46.18" fill="url(#c)" transform="rotate(-75 70.7 159.57)"/><circle cx="280.2" cy="103.44" r="46.18" fill="url(#d)" transform="rotate(45 280.2 103.44)"/><circle cx="312.61" cy="224.39" r="46.18" fill="url(#e)" transform="rotate(105 312.6 224.39)"/><circle cx="224.06" cy="312.93" r="46.18" fill="url(#f)" transform="rotate(165 224.06 312.93)"/><circle cx="103.11" cy="280.52" r="46.18" fill="url(#g)" transform="rotate(-135 103.11 280.52)"/><defs><linearGradient id="b" x1="159.24" x2="159.24" y1="24.84" y2="117.21" gradientUnits="userSpaceOnUse"><stop stop-color="#FFD9F9"/><stop offset="1" stop-color="#fff"/></linearGradient><linearGradient id="c" x1="70.7" x2="70.7" y1="113.39" y2="205.75" gradientUnits="userSpaceOnUse"><stop stop-color="#FFD9F9"/><stop offset="1" stop-color="#fff"/></linearGradient><linearGradient id="d" x1="280.2" x2="280.2" y1="57.25" y2="149.62" gradientUnits="userSpaceOnUse"><stop stop-color="#FFD9F9"/><stop offset="1" stop-color="#fff"/></linearGradient><linearGradient id="e" x1="312.61" x2="312.61" y1="178.21" y2="270.57" gradientUnits="userSpaceOnUse"><stop stop-color="#FFD9F9"/><stop offset="1" stop-color="#fff"/></linearGradient><linearGradient id="f" x1="224.06" x2="224.06" y1="266.75" y2="359.12" gradientUnits="userSpaceOnUse"><stop stop-color="#FFD9F9"/><stop offset="1" stop-color="#fff"/></linearGradient><linearGradient id="g" x1="103.11" x2="103.11" y1="234.34" y2="326.71" gradientUnits="userSpaceOnUse"><stop stop-color="#FFD9F9"/><stop offset="1" stop-color="#fff"/></linearGradient><radialGradient id="a" cx="0" cy="0" r="1" gradientTransform="rotate(75 -29.27 220.87) scale(191.3)" gradientUnits="userSpaceOnUse"><stop stop-color="#9D0068"/><stop offset="1"/></radialGradient></defs></svg>